<svg width="15" height="16" viewBox="0 0 15 16" fill="none" xmlns="http://www.w3.org/2000/svg">
<path d="M12.0194 15.3581C11.1484 16.2024 10.1974 16.0691 9.28195 15.6691C8.31318 15.2603 7.42441 15.2425 6.40231 15.6691C5.12247 16.2202 4.44701 16.0602 3.68266 15.3581C-0.654573 10.8875 -0.014654 4.07948 4.90917 3.83063C6.10902 3.89284 6.94447 4.48832 7.6466 4.54165C8.69536 4.32834 9.69968 3.71509 10.8195 3.79508C12.1616 3.90173 13.1748 4.435 13.8414 5.39487C11.0684 7.05689 11.7261 10.7098 14.268 11.7319C13.7614 13.065 13.1037 14.3893 12.0105 15.367L12.0194 15.3581ZM7.55772 3.7773C7.42441 1.79533 9.03309 0.15998 10.8817 0C11.1395 2.29304 8.80201 3.9995 7.55772 3.7773Z" />
</svg>
