<svg width="14" height="16" viewBox="0 0 14 16" fill="none" xmlns="http://www.w3.org/2000/svg">
<path d="M1.25135 0.000666658C0.336694 0.000666658 3.16133e-05 0.337995 3.16133e-05 1.25332V12.2938C-0.000423064 12.3902 0.00402706 12.4866 0.0133648 12.5825C0.0340311 12.7825 0.0380311 12.9758 0.224029 13.1958C0.242028 13.2178 0.431359 13.3592 0.431359 13.3592C0.533358 13.4092 0.603357 13.4458 0.718022 13.4925L6.27461 15.8198C6.56328 15.9525 6.68394 16.0038 6.89327 15.9998H6.89461C7.10394 16.0038 7.2246 15.9525 7.51326 15.8198L13.0699 13.4918C13.1845 13.4452 13.2545 13.4092 13.3565 13.3585C13.3565 13.3585 13.5458 13.2178 13.5638 13.1965C13.7505 12.9765 13.7538 12.7825 13.7745 12.5832C13.7839 12.487 13.7883 12.3904 13.7878 12.2938V1.25332C13.7878 0.337995 13.4505 0 12.5359 0L1.25135 0.000666658ZM10.1619 2.07397H10.6152C11.3739 2.07397 11.7405 2.44263 11.7405 3.20462V4.45794H10.8246V3.25796C10.8246 3.01196 10.7112 2.89796 10.4759 2.89796H10.3192C10.0746 2.89796 9.96123 3.01129 9.96123 3.25729V7.13057C9.96123 7.37657 10.0746 7.49057 10.3192 7.49057H10.4939C10.7292 7.49057 10.8426 7.37657 10.8426 7.13057V5.74659H11.7579V7.17524C11.7579 7.93789 11.3832 8.31522 10.6246 8.31522H10.1619C9.40324 8.31522 9.02858 7.93789 9.02858 7.17524V3.21396C9.02858 2.4513 9.40324 2.07464 10.1619 2.07464V2.07397ZM2.038 2.1273H4.11398V2.97663H2.97132V4.71194H4.06998V5.56193H2.97132V7.41123H4.13131V8.26122H2.038V2.1273ZM4.58197 2.1273H6.04728C6.80594 2.1273 7.1806 2.5033 7.1806 3.26596V4.89593C7.1806 5.65859 6.80594 6.03592 6.04728 6.03592H5.51462V8.26122H4.5813L4.58197 2.1273ZM7.60193 2.1273H8.53525V8.26122H7.60193V2.1273ZM5.51529 2.95063V5.21193H5.89862C6.13462 5.21193 6.24728 5.09793 6.24728 4.85193V3.31062C6.24728 3.06529 6.13395 2.95063 5.89862 2.95063H5.51529ZM3.02199 9.7152C3.15654 9.71573 3.28994 9.74011 3.41599 9.7872C3.53513 9.83516 3.64551 9.90251 3.74265 9.98653L3.44132 10.3505C3.37961 10.2974 3.31043 10.2536 3.23599 10.2205C3.15927 10.189 3.07691 10.1736 2.99399 10.1752C2.92959 10.1747 2.86586 10.1883 2.80733 10.2152C2.75083 10.2412 2.70007 10.2781 2.658 10.3239C2.61478 10.3712 2.58065 10.4261 2.55733 10.4859C2.53224 10.5493 2.51956 10.617 2.52 10.6852V10.6905C2.51949 10.7611 2.53215 10.8312 2.55733 10.8972C2.58039 10.9584 2.61605 11.014 2.662 11.0605C2.70738 11.1061 2.76129 11.1424 2.82066 11.1672C2.88472 11.1935 2.95341 11.2066 3.02266 11.2058C3.12703 11.2101 3.23029 11.1831 3.31932 11.1285V10.9025H2.95399V10.5259H3.80665V11.3625C3.70119 11.448 3.58341 11.517 3.45732 11.5672C3.31235 11.624 3.15766 11.6518 3.00199 11.6492C2.86493 11.6507 2.72879 11.6265 2.60066 11.5778C2.48245 11.5325 2.3742 11.4646 2.282 11.3778C2.19139 11.2923 2.11925 11.189 2.07 11.0745C2.01794 10.9523 1.99183 10.8207 1.99334 10.6879V10.6825C1.9921 10.552 2.01774 10.4227 2.06867 10.3025C2.11756 10.1878 2.1882 10.0837 2.27667 9.99587C2.36709 9.90667 2.47456 9.83661 2.59266 9.78987C2.7195 9.73962 2.8549 9.71448 2.99132 9.71587C3.00132 9.71574 3.01132 9.71574 3.02132 9.71587L3.02199 9.7152ZM10.9972 9.72054C11.1356 9.72018 11.2733 9.74132 11.4052 9.7832C11.5281 9.82387 11.6426 9.88644 11.7432 9.96787L11.4859 10.3319C11.4061 10.2743 11.3186 10.2282 11.2259 10.1952C11.1429 10.1652 11.0554 10.1494 10.9672 10.1485C10.9185 10.1452 10.87 10.1573 10.8286 10.1832C10.8144 10.1924 10.8028 10.2049 10.7946 10.2197C10.7865 10.2345 10.7821 10.251 10.7819 10.2679V10.2732C10.7814 10.2929 10.7865 10.3123 10.7966 10.3292C10.8094 10.348 10.8268 10.3631 10.8472 10.3732C10.8785 10.3896 10.9113 10.403 10.9452 10.4132C10.9866 10.4265 11.0385 10.4399 11.1025 10.4539C11.1998 10.4746 11.2956 10.5018 11.3892 10.5352C11.4672 10.5623 11.5408 10.6005 11.6079 10.6485C11.6659 10.6902 11.7132 10.745 11.7459 10.8085C11.7791 10.8786 11.7953 10.9556 11.7932 11.0332V11.0385C11.7949 11.1264 11.7764 11.2135 11.7392 11.2932C11.7033 11.3672 11.6511 11.4321 11.5865 11.4832C11.5166 11.538 11.4367 11.5788 11.3512 11.6032C11.2515 11.6315 11.1482 11.6452 11.0445 11.6438C10.8836 11.6447 10.7236 11.6186 10.5712 11.5665C10.4253 11.517 10.2908 11.4386 10.1759 11.3358L10.4626 10.9932C10.6472 11.1418 10.8479 11.2165 11.0625 11.2165C11.117 11.2197 11.1714 11.2082 11.2199 11.1832C11.2368 11.174 11.2509 11.1603 11.2606 11.1436C11.2702 11.1268 11.275 11.1078 11.2745 11.0885V11.0832C11.2748 11.0652 11.2702 11.0475 11.2612 11.0319C11.2488 11.0134 11.2321 10.9983 11.2125 10.9879C11.1823 10.9708 11.1503 10.957 11.1172 10.9465C11.0661 10.9302 11.0143 10.9164 10.9619 10.9052C10.8691 10.884 10.7772 10.8589 10.6866 10.8299C10.6082 10.8053 10.5338 10.7693 10.4659 10.7232C10.4047 10.6813 10.3541 10.6259 10.3179 10.5612C10.2794 10.4872 10.2606 10.4046 10.2632 10.3212V10.3159C10.2623 10.2335 10.2792 10.1519 10.3126 10.0765C10.3453 10.0037 10.394 9.93919 10.4552 9.88787C10.5221 9.83249 10.5991 9.7906 10.6819 9.76453C10.7785 9.73402 10.8793 9.71917 10.9806 9.72054C10.9861 9.7205 10.9917 9.7205 10.9972 9.72054ZM4.75863 9.7372H5.25329L6.04195 11.6105H5.49196L5.35663 11.2778H4.64197L4.50997 11.6098H3.96998L4.75863 9.7372ZM6.22328 9.75054H6.76594L7.20793 10.4705L7.64993 9.75054H8.19259V11.6105H7.68193V10.5425L7.20793 11.2698H7.19727L6.72594 10.5479V11.6098H6.22328V9.75054ZM8.53592 9.75054H10.0259V10.1892H9.04391V10.4705H9.93323V10.8772H9.04391V11.1718H10.0392V11.6105H8.53592V9.75054ZM5.00263 10.3485L4.79263 10.8772H5.20863L5.00263 10.3485ZM4.23931 13.8085H9.5819L6.85527 14.7071L4.23931 13.8085Z" />
</svg>
