<svg width="17" height="16" viewBox="0 0 17 16" fill="none" xmlns="http://www.w3.org/2000/svg">
<path d="M14.5538 0H1.98235C1.03592 0 0.268066 0.767857 0.268066 1.71429V14.2857C0.268066 15.2321 1.03592 16 1.98235 16H14.5538C15.5002 16 16.2681 15.2321 16.2681 14.2857V1.71429C16.2681 0.767857 15.5002 0 14.5538 0ZM4.80378 12.5893C4.60735 12.9321 4.16807 13.0464 3.82878 12.85C3.48592 12.6536 3.37164 12.2143 3.56807 11.875L4.07878 10.9929C4.65378 10.8179 5.12521 10.9536 5.49307 11.4L4.80378 12.5893ZM9.76449 10.6643H3.26807C2.87521 10.6643 2.55378 10.3429 2.55378 9.95C2.55378 9.55714 2.87521 9.23571 3.26807 9.23571H5.0895L7.42521 5.19286L6.69307 3.92857C6.49664 3.58571 6.6145 3.15 6.95378 2.95357C7.29664 2.75714 7.73235 2.875 7.92878 3.21429L8.24664 3.76429L8.5645 3.21429C8.76092 2.87143 9.20021 2.75714 9.5395 2.95357C9.88235 3.15 9.99664 3.58929 9.80021 3.92857L6.73592 9.23571H8.95378C9.67521 9.23571 10.0788 10.0821 9.76449 10.6643ZM13.2681 10.6643H12.2324L12.9324 11.875C13.1288 12.2179 13.0109 12.6536 12.6716 12.85C12.3288 13.0464 11.8931 12.9286 11.6966 12.5893C10.5216 10.5571 9.64307 9.02857 9.05378 8.01429C8.45735 6.97857 8.88235 5.94286 9.30735 5.59286C9.77521 6.40357 10.4752 7.61786 11.4109 9.23571H13.2681C13.6609 9.23571 13.9824 9.55714 13.9824 9.95C13.9824 10.3464 13.6609 10.6643 13.2681 10.6643Z" />
</svg>
