<svg width="17" height="16" viewBox="0 0 17 16" fill="none" xmlns="http://www.w3.org/2000/svg">
<path fill-rule="evenodd" clip-rule="evenodd" d="M0.268066 1.15649C0.268066 1.1257 0.269298 1.09491 0.271761 1.06658L7.20579 7.99938L0.271761 14.9334C0.269336 14.9035 0.268103 14.8735 0.268066 14.8435V1.15649ZM1.81745 16C1.94061 15.9766 2.06377 15.9347 2.18447 15.8744L10.7356 11.5304L8.51131 9.30613L1.81745 16ZM9.81806 7.99938L12.4685 10.6498L15.6535 9.03148C16.539 8.58194 16.539 7.41806 15.6535 6.96852L12.4673 5.35017L9.81806 7.99938ZM10.7356 4.46956L2.18447 0.125625C2.06864 0.0667011 1.94509 0.0244093 1.81745 0L8.51131 6.69263L10.7356 4.46956Z" />
</svg>
