<svg width="22" height="16" viewBox="0 0 22 16" fill="none" xmlns="http://www.w3.org/2000/svg">
<path d="M20.84 12.2456C20.4353 12.7567 19.4442 13.1209 19.4442 13.1209L12.0729 15.7722V13.8165L17.4978 11.8805C18.1134 11.6602 18.2075 11.3478 17.7077 11.184C17.208 11.0193 16.3035 11.0664 15.687 11.2885L12.0729 12.5628V10.5346L12.2809 10.4631C12.2809 10.4631 13.3256 10.0932 14.7938 9.93035C16.263 9.76847 18.0616 9.95294 19.4734 10.4885C21.064 10.992 21.2428 11.7346 20.84 12.2456ZM12.7741 8.91576V3.91718C12.7741 3.32988 12.6658 2.78965 12.1153 2.63718C11.6945 2.50165 11.4329 2.89318 11.4329 3.47953V16L8.06066 14.928V0C9.49408 0.266353 11.5835 0.896941 12.7063 1.27529C15.5628 2.25694 16.5313 3.47953 16.5313 6.23247C16.5313 8.91576 14.8767 9.93318 12.7741 8.91671M1.87243 13.6132C0.238546 13.152 -0.0334541 12.192 0.711017 11.6395C1.39902 11.1294 2.56984 10.7454 2.56984 10.7454L7.4056 9.02306V10.9864L3.92513 12.2334C3.31055 12.4536 3.21643 12.7661 3.71525 12.9299C4.21596 13.0946 5.12043 13.0475 5.73596 12.8264L7.4056 12.2202V13.9755L7.07243 14.032C5.40278 14.3049 3.6249 14.1911 1.87243 13.6132Z" />
</svg>
