<svg width="17" height="16" viewBox="0 0 17 16" fill="none" xmlns="http://www.w3.org/2000/svg">
<path d="M9.4638 16C9.38825 16 9.33847 15.9493 9.35091 15.8871V0.112889C9.35091 0.0631113 9.38825 0.0124445 9.45136 0.0124445H11.9269C13.0137 0.0124445 14.056 0.444173 14.8245 1.21266C15.593 1.98114 16.0247 3.02342 16.0247 4.11022V11.9022C16.0247 12.989 15.593 14.0313 14.8245 14.7998C14.056 15.5683 13.0137 16 11.9269 16H9.4638ZM12.5056 7.17689C11.6131 7.17689 10.8842 7.90578 10.8842 8.79822C10.8842 9.69067 11.6131 10.4196 12.5056 10.4196C13.398 10.4196 14.1269 9.69067 14.1269 8.79822C14.1269 7.90578 13.398 7.17689 12.5056 7.17689ZM2.51269 4.8C2.51363 4.40046 2.67276 4.01755 2.95528 3.73503C3.2378 3.45252 3.62071 3.29338 4.02025 3.29244C4.41994 3.29315 4.80308 3.45218 5.08579 3.73472C5.3685 4.01726 5.52775 4.40031 5.52869 4.8C5.52869 5.63022 4.85047 6.30844 4.02025 6.30844C3.6207 6.30704 3.23793 6.14763 2.95549 5.86502C2.67304 5.58241 2.51386 5.19955 2.51269 4.8ZM7.61491 9.64176e-08C7.69047 9.64176e-08 7.74114 0.0506668 7.72869 0.112889V15.8756C7.72869 15.9378 7.67803 15.9884 7.61491 15.9884H4.12158C3.58338 15.9884 3.05045 15.8824 2.55322 15.6764C2.056 15.4704 1.60423 15.1685 1.2237 14.7879C0.843175 14.4073 0.541354 13.9555 0.335473 13.4582C0.129593 12.9609 0.0236871 12.428 0.0238038 11.8898V4.09778C0.0238038 3.55958 0.129825 3.02664 0.335814 2.52942C0.541802 2.0322 0.843721 1.58042 1.22433 1.1999C1.60494 0.819372 2.05678 0.51755 2.55405 0.31167C3.05131 0.105789 3.58427 -0.00011665 4.12247 9.64176e-08H7.61491ZM6.44603 14.7058V1.28178H4.12247C3.3678 1.28178 2.66469 1.584 2.1358 2.11111C1.87082 2.36928 1.66076 2.67835 1.51824 3.01975C1.37573 3.36115 1.30369 3.72783 1.30647 4.09778V11.8898C1.30647 12.6444 1.60869 13.3476 2.1358 13.8756C2.39389 14.1407 2.70293 14.3509 3.04433 14.4936C3.38574 14.6363 3.75246 14.7084 4.12247 14.7058H6.44603Z" />
</svg>
