<svg width="17" height="16" viewBox="0 0 17 16" fill="none" xmlns="http://www.w3.org/2000/svg">
<path d="M7.22564 15.967C5.95817 15.8359 4.74036 15.4039 3.67358 14.707C2.77557 14.122 2.57256 13.881 2.57256 13.401C2.57256 12.436 3.63458 10.7449 5.45161 8.81791C6.48263 7.72289 7.92066 6.43987 8.07566 6.47487C8.37766 6.54287 10.7937 8.89791 11.6977 10.0059C13.1277 11.759 13.7858 13.195 13.4518 13.835C13.1977 14.321 11.6217 15.272 10.4647 15.637C9.51068 15.938 8.25766 16.066 7.22564 15.967ZM1.35954 12.397C0.612531 11.253 0.235525 10.1269 0.0535215 8.49691C-0.00647949 7.9579 0.0155209 7.65089 0.190524 6.54687C0.408528 5.16985 1.19254 3.57682 2.13556 2.5968C2.53656 2.1798 2.57256 2.1698 3.06157 2.3338C3.65658 2.5338 4.29159 2.97181 5.27461 3.86183L5.84862 4.38084L5.53562 4.76584C4.07959 6.55287 2.54356 9.08592 1.96355 10.6529C1.64855 11.505 1.52155 12.36 1.65755 12.716C1.74855 12.956 1.66455 12.866 1.35754 12.397H1.35954ZM14.4608 12.592C14.5348 12.232 14.4418 11.572 14.2228 10.9049C13.7498 9.46192 12.1677 6.77688 10.7147 4.95185L10.2577 4.37684L10.7517 3.92283C11.3977 3.32982 11.8467 2.97481 12.3317 2.67281C12.7127 2.4358 13.2587 2.2248 13.4928 2.2248C13.6378 2.2248 14.1468 2.75281 14.5578 3.32882C15.211 4.26115 15.6679 5.31653 15.9008 6.43087C16.0538 7.15888 16.0668 8.71691 15.9248 9.44292C15.7915 10.0932 15.5904 10.7276 15.3248 11.336C15.1458 11.729 14.7008 12.492 14.5048 12.74C14.4048 12.868 14.4038 12.867 14.4608 12.592ZM7.35865 1.95179C6.68864 1.61179 5.65462 1.24678 5.08261 1.14878C4.83154 1.11038 4.57739 1.09598 4.3236 1.10578C3.85259 1.12978 3.87359 1.10578 4.6296 0.747773C5.22233 0.463374 5.84864 0.255052 6.49363 0.127762C7.29365 -0.0412406 8.79967 -0.0422406 9.58769 0.122762C10.4377 0.302765 11.4407 0.674772 12.0057 1.02278L12.1737 1.12578L11.7887 1.10578C11.0227 1.06778 9.90869 1.37578 8.71067 1.95879C8.34966 2.1348 8.03466 2.2748 8.01166 2.2708C7.79048 2.1711 7.57338 2.06472 7.35865 1.95179Z" />
</svg>
