<svg width="22" height="16" viewBox="0 0 22 16" fill="none" xmlns="http://www.w3.org/2000/svg">
<path d="M18.4293 1.32796C17.0993 0.707955 15.6593 0.257956 14.1593 -0.00204446C14.1461 -0.00246506 14.1331 3.02307e-06 14.121 0.0051863C14.1089 0.0103696 14.0981 0.0181422 14.0893 0.0279558C13.9093 0.357956 13.6993 0.787955 13.5593 1.11796C11.9683 0.877955 10.3503 0.877955 8.7593 1.11796C8.6193 0.777955 8.4093 0.357956 8.2193 0.0279558C8.2093 0.00795575 8.1793 -0.00204446 8.1493 -0.00204446C6.6493 0.257956 5.2193 0.707955 3.8793 1.32796C3.8693 1.32796 3.8593 1.33796 3.8493 1.34796C1.1293 5.41796 0.379297 9.37795 0.749297 13.298C0.749297 13.318 0.759297 13.338 0.779297 13.348C2.5793 14.668 4.3093 15.468 6.0193 15.998C6.0493 16.008 6.0793 15.998 6.0893 15.978C6.4893 15.428 6.8493 14.848 7.1593 14.238C7.1793 14.198 7.1593 14.158 7.1193 14.148C6.5493 13.928 6.0093 13.668 5.4793 13.368C5.4393 13.348 5.4393 13.288 5.4693 13.258C5.5793 13.178 5.6893 13.088 5.7993 13.008C5.8193 12.988 5.8493 12.988 5.8693 12.998C9.3093 14.568 13.0193 14.568 16.4193 12.998C16.4393 12.988 16.4693 12.988 16.4893 13.008C16.5993 13.098 16.7093 13.178 16.8193 13.268C16.8593 13.298 16.8593 13.358 16.8093 13.378C16.2893 13.688 15.7393 13.938 15.1693 14.158C15.1293 14.168 15.1193 14.218 15.1293 14.248C15.4493 14.858 15.8093 15.438 16.1993 15.988C16.2293 15.998 16.2593 16.008 16.2893 15.998C18.0093 15.468 19.7393 14.668 21.5393 13.348C21.5593 13.338 21.5693 13.318 21.5693 13.298C22.0093 8.76795 20.8393 4.83796 18.4693 1.34796C18.4593 1.33796 18.4493 1.32796 18.4293 1.32796ZM7.6793 10.908C6.6493 10.908 5.7893 9.95796 5.7893 8.78796C5.7893 7.61796 6.6293 6.66796 7.6793 6.66796C8.7393 6.66796 9.5793 7.62796 9.5693 8.78796C9.5693 9.95796 8.7293 10.908 7.6793 10.908ZM14.6493 10.908C13.6193 10.908 12.7593 9.95796 12.7593 8.78796C12.7593 7.61796 13.5993 6.66796 14.6493 6.66796C15.7093 6.66796 16.5493 7.62796 16.5393 8.78796C16.5393 9.95796 15.7093 10.908 14.6493 10.908Z" fill="black"/>
</svg>
