<svg width="21" height="20" viewBox="0 0 21 20" fill="none" xmlns="http://www.w3.org/2000/svg">
<path d="M6.03901 0H14.439C17.639 0 20.239 2.6 20.239 5.8V14.2C20.239 15.7383 19.6279 17.2135 18.5402 18.3012C17.4525 19.3889 15.9773 20 14.439 20H6.03901C2.83901 20 0.239014 17.4 0.239014 14.2V5.8C0.239014 4.26174 0.850083 2.78649 1.93779 1.69878C3.02551 0.61107 4.50076 0 6.03901 0ZM5.83901 2C4.88423 2 3.96856 2.37928 3.29343 3.05442C2.6183 3.72955 2.23901 4.64522 2.23901 5.6V14.4C2.23901 16.39 3.84901 18 5.83901 18H14.639C15.5938 18 16.5095 17.6207 17.1846 16.9456C17.8597 16.2705 18.239 15.3548 18.239 14.4V5.6C18.239 3.61 16.629 2 14.639 2H5.83901ZM15.489 3.5C15.8205 3.5 16.1385 3.6317 16.3729 3.86612C16.6073 4.10054 16.739 4.41848 16.739 4.75C16.739 5.08152 16.6073 5.39946 16.3729 5.63388C16.1385 5.8683 15.8205 6 15.489 6C15.1575 6 14.8396 5.8683 14.6051 5.63388C14.3707 5.39946 14.239 5.08152 14.239 4.75C14.239 4.41848 14.3707 4.10054 14.6051 3.86612C14.8396 3.6317 15.1575 3.5 15.489 3.5ZM10.239 5C11.5651 5 12.8369 5.52678 13.7745 6.46447C14.7122 7.40215 15.239 8.67392 15.239 10C15.239 11.3261 14.7122 12.5979 13.7745 13.5355C12.8369 14.4732 11.5651 15 10.239 15C8.91293 15 7.64116 14.4732 6.70348 13.5355C5.7658 12.5979 5.23901 11.3261 5.23901 10C5.23901 8.67392 5.7658 7.40215 6.70348 6.46447C7.64116 5.52678 8.91293 5 10.239 5ZM10.239 7C9.44336 7 8.6803 7.31607 8.11769 7.87868C7.55508 8.44129 7.23901 9.20435 7.23901 10C7.23901 10.7956 7.55508 11.5587 8.11769 12.1213C8.6803 12.6839 9.44336 13 10.239 13C11.0347 13 11.7977 12.6839 12.3603 12.1213C12.9229 11.5587 13.239 10.7956 13.239 10C13.239 9.20435 12.9229 8.44129 12.3603 7.87868C11.7977 7.31607 11.0347 7 10.239 7Z" fill="black"/>
</svg>
