<svg width="18" height="20" viewBox="0 0 18 20" fill="none" xmlns="http://www.w3.org/2000/svg">
<path d="M14.0612 3.13333C13.3017 2.26625 12.8831 1.1527 12.8835 0H9.45012V13.7778C9.42364 14.5234 9.10887 15.2296 8.57209 15.7477C8.0353 16.2658 7.3184 16.5555 6.57235 16.5556C4.99457 16.5556 3.68346 15.2667 3.68346 13.6667C3.68346 11.7556 5.5279 10.3222 7.4279 10.9111V7.4C3.59457 6.88889 0.239014 9.86667 0.239014 13.6667C0.239014 17.3667 3.30568 20 6.56124 20C10.0501 20 12.8835 17.1667 12.8835 13.6667V6.67778C14.2757 7.67761 15.9472 8.21405 17.6612 8.21111V4.77778C17.6612 4.77778 15.5723 4.87778 14.0612 3.13333Z" fill="black"/>
</svg>
