<svg width="21" height="14" viewBox="0 0 21 14" fill="none" xmlns="http://www.w3.org/2000/svg">
<path d="M8.66064 10L13.8506 7L8.66064 4V10ZM20.2206 2.17C20.3506 2.64 20.4406 3.27 20.5006 4.07C20.5706 4.87 20.6006 5.56 20.6006 6.16L20.6606 7C20.6606 9.19 20.5006 10.8 20.2206 11.83C19.9706 12.73 19.3906 13.31 18.4906 13.56C18.0206 13.69 17.1606 13.78 15.8406 13.84C14.5406 13.91 13.3506 13.94 12.2506 13.94L10.6606 14C6.47064 14 3.86064 13.84 2.83064 13.56C1.93064 13.31 1.35064 12.73 1.10064 11.83C0.970645 11.36 0.880645 10.73 0.820645 9.93C0.750645 9.13 0.720644 8.44 0.720644 7.84L0.660645 7C0.660645 4.81 0.820645 3.2 1.10064 2.17C1.35064 1.27 1.93064 0.69 2.83064 0.44C3.30064 0.31 4.16064 0.22 5.48064 0.16C6.78064 0.0899998 7.97064 0.0599999 9.07064 0.0599999L10.6606 0C14.8506 0 17.4606 0.16 18.4906 0.44C19.3906 0.69 19.9706 1.27 20.2206 2.17Z" fill="black"/>
</svg>
