<svg width="26" height="24" viewBox="0 0 26 24" fill="none" xmlns="http://www.w3.org/2000/svg">
<path d="M25.7439 22.2411L20.5528 9.66702C20.4569 9.43481 20.2943 9.23629 20.0855 9.09659C19.8767 8.9569 19.6311 8.88233 19.3799 8.88233C19.1287 8.88233 18.8831 8.9569 18.6743 9.09659C18.4655 9.23629 18.3029 9.43481 18.207 9.66702L13.0159 22.2411C12.9513 22.3953 12.9179 22.5607 12.9175 22.7279C12.917 22.895 12.9496 23.0606 13.0134 23.2152C13.0772 23.3697 13.1709 23.5101 13.2891 23.6283C13.4073 23.7465 13.5477 23.8402 13.7022 23.904C13.8567 23.9678 14.0223 24.0004 14.1894 24C14.3566 23.9996 14.522 23.9662 14.6763 23.9016C14.8305 23.8371 14.9704 23.7427 15.088 23.624C15.2057 23.5052 15.2987 23.3643 15.3617 23.2095L16.4189 20.6491H22.3409L23.3981 23.2095C23.4939 23.4418 23.6566 23.6404 23.8655 23.7802C24.0743 23.9199 24.32 23.9945 24.5713 23.9945C24.7798 23.9944 24.9851 23.9429 25.169 23.8445C25.3528 23.7462 25.5096 23.6041 25.6255 23.4307C25.7414 23.2574 25.8127 23.0581 25.8333 22.8506C25.8539 22.6431 25.823 22.4338 25.7433 22.2411H25.7439ZM17.467 18.1112L19.3802 13.4767L21.2934 18.1112H17.467ZM13.603 17.0107C13.8002 16.7384 13.8812 16.399 13.8283 16.067C13.7754 15.735 13.593 15.4376 13.321 15.24C13.3095 15.2313 12.4558 14.598 11.2163 13.2368C13.5033 10.1406 14.7987 6.6181 15.3271 4.9604H17.1884C17.5249 4.9604 17.8477 4.82671 18.0857 4.58874C18.3236 4.35077 18.4573 4.02801 18.4573 3.69146C18.4573 3.35492 18.3236 3.03216 18.0857 2.79419C17.8477 2.55621 17.5249 2.42252 17.1884 2.42252H10.4976V1.26894C10.4976 0.932396 10.3639 0.609636 10.1259 0.371664C9.88796 0.133691 9.5652 0 9.22866 0C8.89211 0 8.56936 0.133691 8.33138 0.371664C8.09341 0.609636 7.95972 0.932396 7.95972 1.26894V2.42252H1.26894C0.932397 2.42252 0.609636 2.55621 0.371664 2.79419C0.133691 3.03216 0 3.35492 0 3.69146C0 4.02801 0.133691 4.35077 0.371664 4.58874C0.609636 4.82671 0.932397 4.9604 1.26894 4.9604H12.6461C12.097 6.51486 11.0859 8.9691 9.54359 11.2105C7.73189 8.80645 7.05877 7.25084 7.05358 7.23815C6.92095 6.93164 6.67282 6.68977 6.36302 6.56501C6.05322 6.44024 5.70673 6.44265 5.39868 6.57169C5.09064 6.70074 4.8459 6.94602 4.71753 7.25435C4.58916 7.56267 4.58752 7.90917 4.71296 8.2187C4.74641 8.29829 5.55219 10.1931 7.76188 13.0597C7.81494 13.1283 7.86743 13.1952 7.91992 13.2622C5.65659 15.8202 3.43595 17.407 2.50673 17.9192C2.21126 18.0803 1.99192 18.3523 1.89694 18.6751C1.80197 18.998 1.83915 19.3454 2.00031 19.6409C2.16147 19.9364 2.4334 20.1557 2.75629 20.2507C3.07917 20.3457 3.42656 20.3085 3.72203 20.1473C3.84662 20.0793 6.52524 18.5963 9.58396 15.2106C10.8829 16.5995 11.7758 17.2547 11.8294 17.2928C11.9644 17.3908 12.1173 17.4613 12.2796 17.5001C12.4418 17.539 12.6101 17.5455 12.7748 17.5192C12.9396 17.493 13.0975 17.4345 13.2396 17.3471C13.3817 17.2598 13.5052 17.1453 13.603 17.0101V17.0107Z" fill="white"/>
</svg>
