<svg width="89" height="96" viewBox="0 0 89 96" fill="none" xmlns="http://www.w3.org/2000/svg">
<path d="M22.4523 90.997C23.0343 90.997 23.5295 91.082 23.9362 91.2501C23.9922 91.2736 24.0248 91.335 24.0139 91.3947L23.9 92.0327C23.8856 92.1122 23.8042 92.1574 23.7265 92.1321C23.356 92.0038 22.9692 91.9387 22.568 91.9387C22.3258 91.9387 22.1089 91.9694 21.9155 92.0327C21.7221 92.0959 21.5576 92.1935 21.4184 92.3255C21.2811 92.4592 21.1744 92.6273 21.1003 92.8334C21.0262 93.0394 20.9883 93.2834 20.9883 93.569C20.9883 94.0715 21.1202 94.451 21.3841 94.7077C21.648 94.9643 22.0348 95.0927 22.5481 95.0927C22.6583 95.0927 22.765 95.0836 22.8662 95.0674C22.9674 95.0511 23.0524 95.0294 23.1192 95.0059V93.7895C23.1192 93.7172 23.1771 93.6594 23.2494 93.6594H24.0537C24.126 93.6594 24.1838 93.7172 24.1838 93.7895V95.5644C24.1838 95.615 24.1549 95.6638 24.1079 95.6837C23.9127 95.7705 23.6741 95.8427 23.3903 95.9006C23.0686 95.9657 22.7342 96 22.3872 96C21.9806 96 21.6191 95.9404 21.301 95.8229C20.9828 95.7036 20.7117 95.5391 20.4894 95.3258C20.2671 95.1126 20.0972 94.8577 19.9779 94.5613C19.8586 94.2649 19.8008 93.9341 19.8008 93.5726C19.8008 93.1858 19.8604 92.8352 19.9779 92.5171C20.0954 92.2008 20.2689 91.9297 20.4966 91.7055C20.7244 91.4814 21.0009 91.3061 21.3299 91.1832C21.657 91.0585 22.0312 90.997 22.4523 90.997Z" />
<path d="M34.2747 94.977H32.6191C32.5613 94.977 32.5107 95.0149 32.4926 95.0692L32.254 95.8193C32.2359 95.8735 32.1853 95.9114 32.1275 95.9114H31.1894C31.0973 95.9114 31.034 95.8193 31.0665 95.7325L32.7655 91.1687C32.7854 91.1163 32.8342 91.082 32.8884 91.082H34.009C34.0651 91.082 34.1139 91.1163 34.1319 91.1687L35.8309 95.7325C35.8635 95.8193 35.7984 95.9114 35.708 95.9114H34.7682C34.7103 95.9114 34.6597 95.8753 34.6434 95.8211L34.3976 95.0692C34.3814 95.0131 34.3307 94.977 34.2747 94.977ZM33.0041 94.0353H33.8879C33.9765 94.0353 34.0397 93.9504 34.0144 93.8654L33.5752 92.4141C33.5373 92.2893 33.3602 92.2893 33.3222 92.4141L32.8776 93.8654C32.8523 93.9486 32.9155 94.0353 33.0041 94.0353Z" />
<path d="M45.938 95.1433H44.9566C44.906 95.1433 44.8608 95.1144 44.8391 95.0692L44.1541 93.663C44.0944 93.5419 43.9119 93.578 43.9047 93.7136L43.7944 95.7867C43.7908 95.8554 43.733 95.9114 43.6643 95.9114H42.7624C42.6865 95.9114 42.6268 95.8464 42.6322 95.7705L42.9757 91.2049C42.9811 91.1362 43.0371 91.0838 43.1058 91.0838H43.9734C44.024 91.0838 44.071 91.1127 44.0926 91.1597L45.3307 93.7841C45.3777 93.8835 45.5205 93.8835 45.5675 93.7841L46.8056 91.1597C46.8273 91.1145 46.8743 91.0838 46.9249 91.0838H47.7925C47.8611 91.0838 47.9172 91.1362 47.9226 91.2049L48.266 95.7705C48.2714 95.8464 48.2118 95.9114 48.1359 95.9114H47.234C47.1635 95.9114 47.1074 95.8572 47.1038 95.7867L46.9918 93.7136C46.9845 93.578 46.802 93.5419 46.7423 93.663L46.0573 95.0692C46.0338 95.1144 45.9868 95.1433 45.938 95.1433Z" />
<path d="M55.5102 91.0838H58.2557C58.328 91.0838 58.3876 91.1416 58.3876 91.2157V91.8953C58.3876 91.9676 58.3298 92.0273 58.2557 92.0273H56.6995C56.6272 92.0273 56.5676 92.0851 56.5676 92.1592V92.8677C56.5676 92.94 56.6254 92.9997 56.6995 92.9997H58.1689C58.2412 92.9997 58.3009 93.0575 58.3009 93.1316V93.8112C58.3009 93.8835 58.243 93.9431 58.1689 93.9431H56.6995C56.6272 93.9431 56.5676 94.001 56.5676 94.0751V94.8414C56.5676 94.9137 56.6254 94.9734 56.6995 94.9734H58.2774C58.3497 94.9734 58.4093 95.0312 58.4093 95.1053V95.7849C58.4093 95.8572 58.3515 95.9168 58.2774 95.9168H55.5102C55.4379 95.9168 55.3783 95.859 55.3783 95.7849V91.2193C55.3783 91.1434 55.4379 91.0838 55.5102 91.0838Z" />
<path d="M68.7244 94.4691C68.7244 94.6824 68.6828 94.8812 68.5978 95.0674C68.5129 95.2535 68.3918 95.4144 68.2309 95.5536C68.0719 95.6909 67.8785 95.7994 67.6507 95.8789C67.423 95.9584 67.1645 95.9982 66.8754 95.9982C66.6097 95.9982 66.344 95.9693 66.0783 95.9114C65.8505 95.8626 65.6391 95.794 65.4403 95.7054C65.3824 95.6801 65.3517 95.6132 65.368 95.5518L65.5397 94.9029C65.5595 94.8252 65.6445 94.7854 65.7186 94.8179C65.8505 94.874 65.9951 94.9246 66.1506 94.9679C66.3639 95.0276 66.5934 95.0583 66.8392 95.0583C67.0416 95.0583 67.2097 95.0204 67.3399 94.9463C67.47 94.8722 67.5351 94.7493 67.5351 94.5794C67.5351 94.4583 67.479 94.348 67.3652 94.2504C67.2513 94.151 67.0452 94.0462 66.7452 93.9359C66.2717 93.757 65.9265 93.5527 65.7096 93.3232C65.4927 93.0936 65.3842 92.8008 65.3842 92.443C65.3842 91.9748 65.5379 91.617 65.8451 91.3694C66.1524 91.1235 66.5753 91.0006 67.1175 91.0006C67.3923 91.0006 67.6562 91.0314 67.9074 91.091C68.1171 91.1416 68.2996 91.2049 68.4551 91.279C68.5093 91.3061 68.5364 91.3675 68.5219 91.4254L68.3773 92.0616C68.3593 92.1429 68.2725 92.1827 68.1966 92.152C68.0683 92.0996 67.9309 92.0544 67.7863 92.0182C67.5857 91.9676 67.3796 91.9423 67.1664 91.9423C66.9874 91.9423 66.8446 91.973 66.7344 92.0327C66.6259 92.0923 66.5717 92.1954 66.5717 92.3418C66.5717 92.4086 66.5807 92.4683 66.6006 92.5153C66.6205 92.5641 66.6548 92.6093 66.7055 92.6526C66.7561 92.696 66.8266 92.7394 66.9187 92.7828C67.0109 92.8261 67.1266 92.8767 67.2658 92.9346C67.4682 93.0177 67.6598 93.1045 67.8387 93.1949C68.0177 93.287 68.1713 93.3937 68.3032 93.513C68.4334 93.6341 68.5364 93.7714 68.6105 93.9269C68.6864 94.0805 68.7244 94.2613 68.7244 94.4691Z" />
<path d="M0.779326 69.4578C0.730525 61.5232 7.22644 56.6142 14.8177 56.8944C15.8804 56.9341 16.7625 57.3553 16.6721 58.5193C16.5853 59.6489 16.8962 61.1545 15.1701 61.469C14.3134 61.6244 13.4277 61.6154 12.5602 61.7184C9.68455 62.06 7.03304 64.7441 6.42032 67.9125C5.82749 70.9797 6.99147 74.027 9.72973 75.1151C11.2895 75.7351 13.2398 75.6248 14.9731 75.426C16.1009 75.2977 16.4353 74.0975 16.3865 73.4414C16.3413 72.8341 15.3129 71.9846 14.5791 71.8039C12.3433 71.249 11.4323 69.9657 12.3541 67.8077C12.6144 67.1967 13.6229 66.6057 14.3369 66.5406C17.4836 66.2515 20.1966 67.9884 21.1509 70.6833C22.2046 73.6565 21.0334 77.6654 18.4488 79.3138C14.7146 81.6978 10.7853 81.5821 6.93183 79.659C2.77112 77.5877 0.848008 74.0505 0.779326 69.4578Z" />
<path d="M68.3828 70.8839C68.3828 65.6424 68.3412 60.1622 68.4081 54.6839C68.4279 53.0843 69.2792 52.6288 71.1644 52.7102C72.679 52.7752 72.876 53.6916 72.8128 54.9026C72.7134 56.8347 72.6646 58.7687 72.5652 60.7008C72.5055 61.8721 72.8923 62.3474 74.1756 62.1721C80.4203 61.3136 86.7264 67.7534 88.3947 73.9204C88.7561 75.2561 87.5668 77.0653 85.9908 77.4431C84.4671 77.8082 84.2629 76.5773 83.8869 75.5778C83.3031 74.0216 82.0524 70.5315 81.4595 68.9789C80.4184 66.2551 75.9089 65.2519 74.2822 66.2009C73.7111 66.5334 73.2809 67.5944 73.2737 68.3264C73.2375 71.5997 73.3857 74.8747 73.4399 78.1498C73.4472 78.6252 73.3749 79.1222 73.2339 79.5777C72.8055 80.9531 71.7084 81.255 70.427 81.2297C69.1491 81.2062 68.9864 80.2446 68.9159 79.3318C68.7045 76.6008 68.5653 73.8626 68.3828 70.8839Z" />
<path d="M41.4683 76.8448C41.4683 74.3958 41.4755 71.9467 41.4665 69.4994C41.461 67.9251 42.0629 67.5167 43.3733 67.5347C44.6295 67.5528 45.9995 67.5998 46.0501 69.3169C46.1911 74.2078 46.3194 79.1005 46.3194 83.9914C46.3194 86.041 45.4645 86.6303 43.4185 86.5182C41.8189 86.4296 40.964 85.7753 41.0345 84.0149C41.1285 81.6291 41.4556 79.2343 41.4556 76.8448C41.4592 76.8448 41.4646 76.8448 41.4683 76.8448Z" />
<path d="M46.5291 62.6059C46.5273 64.5218 45.9416 65.111 44.0294 65.1236C41.649 65.1399 40.8212 64.435 40.8429 62.4107C40.8646 60.3032 41.6183 59.4266 43.4149 59.4194C45.7464 59.4103 46.5309 60.2146 46.5291 62.6059Z" />
<path d="M47.2737 66.2478C48.5443 61.6967 52.199 60.0953 58.1454 59.761C62.3423 59.5242 65.7999 62.2209 67.3543 66.5425C67.8658 67.9649 68.3375 69.4307 68.5653 70.9183C69.0442 74.0343 68.0483 76.7635 65.5975 78.7264C61.2741 82.1858 56.3217 82.4858 51.1814 81.058C49.045 80.4633 47.74 78.8529 47.1815 76.7689C45.75 70.7502 47.2737 66.2478 47.2737 66.2478ZM51.2139 71.5129C51.2139 72.2142 51.1434 72.9227 51.2266 73.615C51.4941 75.8182 53.8238 78.101 55.8753 78.2329C58.4472 78.3992 62.758 75.8833 63.884 73.5625C65.1004 71.0538 64.5871 68.7349 62.3441 66.6057C59.7468 64.1404 56.7971 63.6144 54.0299 65.0622C51.3495 66.4629 51.0711 68.8994 51.2139 71.5129Z" />
<path d="M57.0772 67.5384C59.2606 67.542 60.4336 68.3246 60.4264 69.7705C60.4174 71.2327 58.8413 72.3985 56.8694 72.404C55.2951 72.4076 54.3896 71.5093 54.3625 69.9169C54.3336 68.2649 55.1686 67.5347 57.0772 67.5384Z" />
<path d="M40.0856 73.7125C37.3835 72.3534 34.741 71.6593 32.1238 70.1411C30.1935 69.0205 30.2278 68.1673 31.4894 66.3581C33.1848 63.9271 32.986 61.4961 30.8207 60.2399C28.6409 58.9765 26.3021 58.465 23.7319 59.094C22.2155 59.4646 21.7419 60.1984 21.7221 61.7148C21.6407 67.6016 21.4564 73.4866 21.2612 79.3698C21.1346 83.1492 21.1491 83.1998 24.961 82.9503C25.0188 82.9467 25.0748 82.9431 25.1327 82.9449C26.1955 82.9521 26.6744 82.4641 26.6527 81.3652C26.6112 79.1348 26.6292 76.9008 26.6582 74.6687C26.6672 74.0162 26.7955 73.3673 26.9202 72.2774C29.8013 74.0234 32.3642 75.5796 34.9308 77.1304C38.4571 79.2632 37.6564 79.8506 40.5862 76.055C41.4104 74.9868 41.4177 74.3831 40.0856 73.7125ZM27.5438 65.0278C26.6979 65.0296 26.2135 64.5471 26.1991 63.6939C26.1846 62.8083 26.631 62.4179 27.6559 62.4179C28.8271 62.4197 29.4561 62.839 29.4524 63.6144C29.447 64.3988 28.6011 65.0242 27.5438 65.0278Z" />
<path d="M67.7935 9.51433V10.6512H65.6715V11.6941H64.5726V8.43348H63.4538V9.51433H62.4308V10.6132H61.4078V9.5324H60.3468V12.7352H61.4078V13.7961H61.4006V14.8698H60.327V15.9H53.9775V14.8011H52.8207V13.816H51.7977V10.6331H52.8207V8.47144H53.9775V4.2077H52.8587V3.12686H51.7399V2.10385H47.5141V3.16481H46.4712V5.36265H45.4482V10.6874H46.4712V11.7104H45.4283V12.7713H42.1496V11.7104H40.0837V10.6874H38.0377V9.49264H36.8629V7.42855H38.0196V5.30662H39.0806V4.2077H36.8828V3.1847H34.8548V1.02301H33.7179V2.12193H32.6949V1.07904H31.6719V0H30.5531V2.10385H29.5102V10.6711H30.5911V11.6941H32.6949V12.7749H33.8318V13.7419H34.8548V17.1525H33.8318V22.4411H32.751V27.7296H33.8318V29.7196H29.3964V28.6966H26.2695V29.7196H25.2465V31.8795H24.1657V34.0394H23.2565V36.1993H22.1196V37.1084H21.0388V38.3031H19.9019V39.384H22.0058V38.2652H23.0866V39.3081H24.1295V40.369H26.2117V39.3117H27.2491V40.369H28.4113V36.1053H27.3684V35.0823H28.4113V34.0213H31.6719V35.0642H40.1054V36.1071H41.1483V38.3248H40.1253V39.3297H39.0824V41.4517H38.0395V42.4566H36.8448V43.5374H39.0806V42.4765H41.1266V41.4336H43.3064V40.4287H44.3493V39.3677H45.4301V38.3447H46.4911V37.1699H50.7548V38.2887H53.9775V39.3316H56.0614V42.5163H57.1043V43.5212H55.0203V44.6581H53.9594V45.719H52.8225V46.7619H55.0203V48.8278H57.1043V47.8048H59.3401V48.8278H60.4011V47.7849H61.4241V42.4783H62.4471V37.1717H60.3432V36.1288H58.1255V32.982H59.3003V30.7643H60.3432V27.6555H61.3861V23.3918H60.3432V20.1131H65.6878V19.1281H66.7108V15.8819H67.7917V12.7551H68.7966V9.51433H67.7935ZM39.1041 22.3399H38.0377V28.7219H36.8574V26.5187H35.8344V22.3688H36.8574L36.8484 20.1511H38.0377V19.1136H39.1041V22.3399ZM46.4947 21.2319H45.4861V26.5331H44.3493V30.7969H42.202V24.4112H43.3389V18.1051H44.3475V17.0098H45.4843V15.8729H46.4929V21.2319H46.4947ZM50.7367 25.4902V29.754H49.7137V32.9766H47.5159V30.7969H48.6907V25.4902H49.7137V20.1836L50.7367 20.1854V17.017H51.8176V18.0599H52.8785V20.1818H51.8085V25.4902H50.7367ZM57.1423 29.7558H56.0614V30.7987H55.0565V31.8036H53.9955V32.9784H52.8767V29.7558H53.9955V25.4722H55.0095V21.2265H56.1175V22.3254H57.1405V29.7558H57.1423Z" />
</svg>
